<mxfile host="65bd71144e">
    <diagram id="pWFwlJ958g1Dr5NOl4Sy" name="Page-1">
        <mxGraphModel dx="1790" dy="893" grid="1" gridSize="10" guides="1" tooltips="1" connect="1" arrows="1" fold="1" page="1" pageScale="1" pageWidth="1200" pageHeight="1920" background="none" math="0" shadow="0">
            <root>
                <mxCell id="0"/>
                <mxCell id="1" parent="0"/>
                <mxCell id="9" value="" style="edgeStyle=none;html=1;rounded=1;" parent="1" source="2" target="8" edge="1">
                    <mxGeometry relative="1" as="geometry"/>
                </mxCell>
                <mxCell id="24" style="edgeStyle=none;html=1;entryX=0;entryY=0.5;entryDx=0;entryDy=0;fillColor=#60a917;strokeColor=#2D7600;" parent="1" source="2" target="21" edge="1">
                    <mxGeometry relative="1" as="geometry">
                        <mxPoint x="340" y="170" as="sourcePoint"/>
                        <Array as="points">
                            <mxPoint x="360" y="240"/>
                        </Array>
                    </mxGeometry>
                </mxCell>
                <mxCell id="2" value="Renderer" style="whiteSpace=wrap;html=1;rounded=1;" parent="1" vertex="1">
                    <mxGeometry x="220" y="80" width="120" height="80" as="geometry"/>
                </mxCell>
                <mxCell id="26" value="" style="edgeStyle=none;html=1;fillColor=#60a917;strokeColor=#2D7600;" edge="1" parent="1" source="4" target="25">
                    <mxGeometry relative="1" as="geometry"/>
                </mxCell>
                <mxCell id="4" value="Main" style="whiteSpace=wrap;html=1;rounded=1;" parent="1" vertex="1">
                    <mxGeometry x="1000" y="80" width="120" height="80" as="geometry"/>
                </mxCell>
                <mxCell id="43" style="edgeStyle=none;html=1;exitX=1;exitY=1;exitDx=0;exitDy=0;entryX=0;entryY=0.5;entryDx=0;entryDy=0;fillColor=#d80073;strokeColor=#A50040;" edge="1" parent="1" source="5" target="38">
                    <mxGeometry relative="1" as="geometry">
                        <Array as="points">
                            <mxPoint x="891" y="320"/>
                        </Array>
                    </mxGeometry>
                </mxCell>
                <mxCell id="5" value="Preload" style="ellipse;whiteSpace=wrap;html=1;rounded=1;fillColor=#76608a;fontColor=#ffffff;strokeColor=#432D57;" parent="1" vertex="1">
                    <mxGeometry x="780" y="80" width="130" height="80" as="geometry"/>
                </mxCell>
                <mxCell id="11" value="" style="edgeStyle=none;html=1;rounded=1;fillColor=#60a917;strokeColor=#2D7600;" parent="1" source="8" target="10" edge="1">
                    <mxGeometry relative="1" as="geometry"/>
                </mxCell>
                <mxCell id="13" value="" style="edgeStyle=none;html=1;rounded=1;fillColor=#60a917;strokeColor=#2D7600;" parent="1" source="8" target="12" edge="1">
                    <mxGeometry relative="1" as="geometry"/>
                </mxCell>
                <mxCell id="15" value="" style="edgeStyle=none;html=1;rounded=1;fillColor=#60a917;strokeColor=#2D7600;" parent="1" source="8" target="14" edge="1">
                    <mxGeometry relative="1" as="geometry"/>
                </mxCell>
                <mxCell id="20" value="" style="edgeStyle=none;html=1;exitX=1;exitY=0.75;exitDx=0;exitDy=0;fillColor=#60a917;strokeColor=#2D7600;" parent="1" source="2" target="19" edge="1">
                    <mxGeometry relative="1" as="geometry">
                        <Array as="points">
                            <mxPoint x="370" y="160"/>
                            <mxPoint x="520" y="160"/>
                        </Array>
                    </mxGeometry>
                </mxCell>
                <mxCell id="8" value="App" style="rhombus;whiteSpace=wrap;html=1;rounded=1;" parent="1" vertex="1">
                    <mxGeometry x="240" y="220" width="80" height="80" as="geometry"/>
                </mxCell>
                <mxCell id="18" value="" style="edgeStyle=none;html=1;fillColor=#60a917;strokeColor=#2D7600;" parent="1" source="10" target="17" edge="1">
                    <mxGeometry relative="1" as="geometry"/>
                </mxCell>
                <mxCell id="10" value="RouterManager" style="ellipse;whiteSpace=wrap;html=1;rounded=1;" parent="1" vertex="1">
                    <mxGeometry x="370" y="340" width="80" height="80" as="geometry"/>
                </mxCell>
                <mxCell id="28" value="" style="edgeStyle=none;html=1;fillColor=#60a917;strokeColor=#2D7600;" edge="1" parent="1" source="12" target="27">
                    <mxGeometry relative="1" as="geometry"/>
                </mxCell>
                <mxCell id="12" value="TopBar" style="ellipse;whiteSpace=wrap;html=1;rounded=1;" parent="1" vertex="1">
                    <mxGeometry x="80" y="320" width="80" height="80" as="geometry"/>
                </mxCell>
                <mxCell id="14" value="TabBars" style="ellipse;whiteSpace=wrap;html=1;rounded=1;" parent="1" vertex="1">
                    <mxGeometry x="180" y="360" width="80" height="80" as="geometry"/>
                </mxCell>
                <mxCell id="17" value="Tabs (Reducer)" style="shape=trapezoid;perimeter=trapezoidPerimeter;whiteSpace=wrap;html=1;fixedSize=1;rounded=1;" parent="1" vertex="1">
                    <mxGeometry x="350" y="490" width="120" height="60" as="geometry"/>
                </mxCell>
                <mxCell id="34" value="" style="edgeStyle=none;html=1;entryX=0.017;entryY=0.025;entryDx=0;entryDy=0;entryPerimeter=0;fillColor=#fa6800;strokeColor=#C73500;" edge="1" parent="1" source="19" target="33">
                    <mxGeometry relative="1" as="geometry"/>
                </mxCell>
                <mxCell id="19" value="Reducers" style="shape=hexagon;perimeter=hexagonPerimeter2;whiteSpace=wrap;html=1;fixedSize=1;rounded=1;fillColor=#fa6800;fontColor=#000000;strokeColor=#C73500;" parent="1" vertex="1">
                    <mxGeometry x="610" y="220" width="120" height="80" as="geometry"/>
                </mxCell>
                <mxCell id="32" value="" style="edgeStyle=none;html=1;entryX=0;entryY=0.038;entryDx=0;entryDy=0;entryPerimeter=0;fillColor=#0050ef;strokeColor=#001DBC;" edge="1" parent="1" source="21" target="31">
                    <mxGeometry relative="1" as="geometry">
                        <Array as="points">
                            <mxPoint x="540" y="350"/>
                        </Array>
                    </mxGeometry>
                </mxCell>
                <mxCell id="21" value="Actions" style="shape=hexagon;perimeter=hexagonPerimeter2;whiteSpace=wrap;html=1;fixedSize=1;rounded=1;fillColor=#0050ef;fontColor=#ffffff;strokeColor=#001DBC;" parent="1" vertex="1">
                    <mxGeometry x="480" y="220" width="120" height="80" as="geometry"/>
                </mxCell>
                <mxCell id="39" value="" style="edgeStyle=none;html=1;fillColor=#a20025;strokeColor=#6F0000;" edge="1" parent="1" source="25" target="38">
                    <mxGeometry relative="1" as="geometry"/>
                </mxCell>
                <mxCell id="25" value="Events" style="rhombus;whiteSpace=wrap;html=1;rounded=1;fillColor=#a20025;fontColor=#ffffff;strokeColor=#6F0000;" vertex="1" parent="1">
                    <mxGeometry x="1020" y="240" width="80" height="80" as="geometry"/>
                </mxCell>
                <mxCell id="30" value="" style="edgeStyle=none;html=1;fillColor=#60a917;strokeColor=#2D7600;" edge="1" parent="1" source="27" target="29">
                    <mxGeometry relative="1" as="geometry"/>
                </mxCell>
                <mxCell id="27" value="Buttons" style="rounded=1;whiteSpace=wrap;html=1;" vertex="1" parent="1">
                    <mxGeometry x="70" y="440" width="100" height="40" as="geometry"/>
                </mxCell>
                <mxCell id="35" style="edgeStyle=none;html=1;exitX=1;exitY=0.5;exitDx=0;exitDy=0;entryX=0;entryY=0.5;entryDx=0;entryDy=0;fillColor=#1ba1e2;strokeColor=#006EAF;" edge="1" parent="1" source="29" target="31">
                    <mxGeometry relative="1" as="geometry">
                        <mxPoint x="320" y="440" as="targetPoint"/>
                        <Array as="points">
                            <mxPoint x="320" y="545"/>
                            <mxPoint x="320" y="440"/>
                            <mxPoint x="480" y="440"/>
                        </Array>
                    </mxGeometry>
                </mxCell>
                <mxCell id="29" value="AddTab" style="shape=hexagon;perimeter=hexagonPerimeter2;whiteSpace=wrap;html=1;fixedSize=1;rounded=1;" vertex="1" parent="1">
                    <mxGeometry x="80" y="520" width="80" height="50" as="geometry"/>
                </mxCell>
                <mxCell id="42" style="edgeStyle=none;html=1;exitX=1;exitY=0.5;exitDx=0;exitDy=0;entryX=0;entryY=1;entryDx=0;entryDy=0;fillColor=#76608a;strokeColor=#432D57;" edge="1" parent="1" source="31" target="5">
                    <mxGeometry relative="1" as="geometry">
                        <Array as="points">
                            <mxPoint x="640" y="320"/>
                            <mxPoint x="799" y="320"/>
                            <mxPoint x="800" y="280"/>
                        </Array>
                    </mxGeometry>
                </mxCell>
                <mxCell id="31" value="AddTab" style="triangle;whiteSpace=wrap;html=1;rounded=1;rotation=0;fillColor=#1ba1e2;fontColor=#ffffff;strokeColor=#006EAF;" vertex="1" parent="1">
                    <mxGeometry x="540" y="360" width="60" height="80" as="geometry"/>
                </mxCell>
                <mxCell id="41" style="edgeStyle=none;html=1;exitX=0;exitY=0.75;exitDx=0;exitDy=0;entryX=1;entryY=0.5;entryDx=0;entryDy=0;fillColor=#f0a30a;strokeColor=#BD7000;" edge="1" parent="1" source="33" target="17">
                    <mxGeometry relative="1" as="geometry"/>
                </mxCell>
                <mxCell id="33" value="AddTab" style="triangle;whiteSpace=wrap;html=1;rounded=1;rotation=0;fillColor=#e3c800;fontColor=#000000;strokeColor=#B09500;" vertex="1" parent="1">
                    <mxGeometry x="670" y="360" width="60" height="80" as="geometry"/>
                </mxCell>
                <mxCell id="46" value="" style="edgeStyle=none;html=1;" edge="1" parent="1" source="38" target="45">
                    <mxGeometry relative="1" as="geometry"/>
                </mxCell>
                <mxCell id="38" value="AddTab" style="shape=parallelogram;perimeter=parallelogramPerimeter;whiteSpace=wrap;html=1;fixedSize=1;rounded=1;fillColor=#d80073;fontColor=#ffffff;strokeColor=#A50040;" vertex="1" parent="1">
                    <mxGeometry x="1010" y="360" width="100" height="50" as="geometry"/>
                </mxCell>
                <mxCell id="48" value="" style="edgeStyle=none;html=1;" edge="1" parent="1" source="45" target="47">
                    <mxGeometry relative="1" as="geometry"/>
                </mxCell>
                <mxCell id="45" value="Generate Structure" style="shape=hexagon;perimeter=hexagonPerimeter2;whiteSpace=wrap;html=1;fixedSize=1;fillColor=#d80073;strokeColor=#A50040;fontColor=#ffffff;rounded=1;" vertex="1" parent="1">
                    <mxGeometry x="1180" y="345" width="120" height="80" as="geometry"/>
                </mxCell>
                <mxCell id="51" value="" style="edgeStyle=none;html=1;" edge="1" parent="1" source="47" target="50">
                    <mxGeometry relative="1" as="geometry"/>
                </mxCell>
                <mxCell id="47" value="Get RouterType (URL)" style="shape=hexagon;perimeter=hexagonPerimeter2;whiteSpace=wrap;html=1;fixedSize=1;fillColor=#d80073;strokeColor=#A50040;fontColor=#ffffff;rounded=1;" vertex="1" parent="1">
                    <mxGeometry x="1380" y="345" width="120" height="80" as="geometry"/>
                </mxCell>
                <mxCell id="52" style="edgeStyle=none;html=1;exitX=0.5;exitY=1;exitDx=0;exitDy=0;fillColor=#fff2cc;strokeColor=#d6b656;" edge="1" parent="1" source="50" target="33">
                    <mxGeometry relative="1" as="geometry">
                        <Array as="points">
                            <mxPoint x="1640" y="440"/>
                            <mxPoint x="840" y="440"/>
                            <mxPoint x="840" y="400"/>
                        </Array>
                    </mxGeometry>
                </mxCell>
                <mxCell id="50" value="Save and Send" style="shape=hexagon;perimeter=hexagonPerimeter2;whiteSpace=wrap;html=1;fixedSize=1;fillColor=#d80073;strokeColor=#A50040;fontColor=#ffffff;rounded=1;" vertex="1" parent="1">
                    <mxGeometry x="1580" y="345" width="120" height="80" as="geometry"/>
                </mxCell>
            </root>
        </mxGraphModel>
    </diagram>
</mxfile>